# xmcd
#
# Track frame offsets:
#	150
#	13087
#	27870
#	45745
#	65690
#	75205
#	93092
#	110972
#	124007
#	134945
#	150170
#	169417
#	184847
#	200842
#
# Disc length: 2903
#
# Revision: 3
# Processed by: cddbd v1.5.1PL0 Copyright (c) Steve Scherf et al.
# Submitted via: OrangeCD 5.2
# Normalized: r2:DSETVAR1,TDELIM( - )
#
DISCID=c00b550e
DTITLE=Various Artist - Mr. Music Country 12/94
DYEAR=1900
DGENRE=Country
TTITLE0=I can't say I love you any less - Rick Underwood
TTITLE1=Honkeytonkville - Mac Rogers
TTITLE2=To make a long story short - Robin Right
TTITLE3=I wonder if God likes country music - Bill Anderson with Roy Acuff
TTITLE4=You walked by - Clint Black
TTITLE5=The Matador - David Allan Coe
TTITLE6=Honkey Tonk in Texas - Red Jenkins with Bill Green
TTITLE7=Going home - Riley Coyle with Jeannie C. Riley
TTITLE8=Down home Christmas - Art Buchanan
TTITLE9=What if I say goodbye - Vince Gill with Emmylou Harris
TTITLE10=The tumbleweed Christmas tree - Andy Wilkinson
TTITLE11=Under neon lights - Leo Nelson with Bill Arwood
TTITLE12=I wispher your name - Jesse Hunter
TTITLE13=Cheap red wine - Molly and The Heymakers
EXTD=
EXTT0=
EXTT1=
EXTT2=
EXTT3=
EXTT4=
EXTT5=
EXTT6=
EXTT7=
EXTT8=
EXTT9=
EXTT10=
EXTT11=
EXTT12=
EXTT13=
PLAYORDER=
